<svg width="99" height="100" viewBox="0 0 99 100" fill="none" xmlns="http://www.w3.org/2000/svg">
    <path d="M42.9239 0.122743C19.2544 0.122743 0 19.3934 0 43.0829C0 66.7723 19.2544 86.043 42.9239 86.043C50.1596 86.043 57.2727 84.3246 63.2821 81.0105C63.7634 81.5903 64.2971 82.1244 64.8764 82.6062L77.1404 94.8805C78.2728 96.1558 79.6537 97.186 81.1983 97.9079C82.743 98.6297 84.4187 99.0279 86.1227 99.0781C87.8266 99.1283 89.5229 98.8294 91.1073 98.1998C92.6916 97.5701 94.1307 96.623 95.3361 95.4166C96.5415 94.2102 97.4879 92.7699 98.117 91.1842C98.7461 89.5984 99.0447 87.9008 98.9946 86.1954C98.9444 84.49 98.5465 82.8128 97.8253 81.2669C97.1041 79.7209 96.0747 78.3389 94.8005 77.2055L82.5365 64.9312C81.9391 64.333 81.2815 63.7983 80.5743 63.3355C83.8856 57.3211 85.9704 50.3247 85.9704 42.9601C85.9704 19.2707 66.716 0 43.0465 0L42.9239 0.122743ZM42.9239 12.3971C59.9708 12.3971 73.5838 26.0216 73.5838 43.0829C73.5838 51.1839 70.6405 58.6713 65.4896 64.1947C65.367 64.3174 65.2443 64.4402 65.1217 64.5629C64.5424 65.0447 64.0087 65.5788 63.5274 66.1586C58.1312 71.0683 50.7728 73.8914 42.8013 73.8914C25.7543 73.8914 12.1413 60.2669 12.1413 43.2056C12.1413 26.1443 25.7543 12.5198 42.8013 12.5198L42.9239 12.3971Z" fill="black"/>
    </svg>
    